<svg xmlns="http://www.w3.org/2000/svg" version="1.1" xmlns:xlink="http://www.w3.org/1999/xlink" xmlns:svgjs="http://svgjs.dev/svgjs" width="1440" height="628" preserveAspectRatio="none" viewBox="0 0 1440 628"><g mask="url(&quot;#SvgjsMask1221&quot;)" fill="none"><path d="M98.16 660.02L194.29 715.52L194.29 826.52L98.16 882.02L2.03 826.52L2.03 715.52zM290.42 -5.98L386.55 49.52L386.55 160.52L290.42 216.02L194.29 160.52L194.29 49.52zM386.55 160.52L482.69 216.02L482.69 327.02L386.55 382.52L290.42 327.02L290.42 216.02zM674.95 -5.98L771.08 49.52L771.08 160.52L674.95 216.02L578.82 160.52L578.82 49.52zM771.08 493.52L867.21 549.02L867.21 660.02L771.08 715.52L674.95 660.02L674.95 549.02zM867.21 -5.98L963.34 49.52L963.34 160.52L867.21 216.02L771.08 160.52L771.08 49.52zM963.34 160.52L1059.48 216.02L1059.48 327.02L963.34 382.52L867.21 327.02L867.21 216.02zM963.34 493.52L1059.48 549.02L1059.48 660.02L963.34 715.52L867.21 660.02L867.21 549.02zM867.21 660.02L963.34 715.52L963.34 826.52L867.21 882.02L771.08 826.52L771.08 715.52zM1155.61 160.52L1251.74 216.02L1251.74 327.02L1155.61 382.52L1059.48 327.02L1059.48 216.02zM1155.61 493.52L1251.74 549.02L1251.74 660.02L1155.61 715.52L1059.48 660.02L1059.48 549.02zM1059.48 660.02L1155.61 715.52L1155.61 826.52L1059.48 882.02L963.34 826.52L963.34 715.52zM1347.87 493.52L1444 549.02L1444 660.02L1347.87 715.52L1251.74 660.02L1251.74 549.02zM1251.74 660.02L1347.87 715.52L1347.87 826.52L1251.74 882.02L1155.61 826.52L1155.61 715.52zM1540.13 493.52L1636.26 549.02L1636.26 660.02L1540.13 715.52L1444 660.02L1444 549.02z" stroke="rgba(245, 245, 245, 1)" stroke-width="2"></path><path d="M87.06 660.02 a11.1 11.1 0 1 0 22.2 0 a11.1 11.1 0 1 0 -22.2 0zM183.19 715.52 a11.1 11.1 0 1 0 22.2 0 a11.1 11.1 0 1 0 -22.2 0zM183.19 826.52 a11.1 11.1 0 1 0 22.2 0 a11.1 11.1 0 1 0 -22.2 0zM87.06 882.02 a11.1 11.1 0 1 0 22.2 0 a11.1 11.1 0 1 0 -22.2 0zM-9.07 826.52 a11.1 11.1 0 1 0 22.2 0 a11.1 11.1 0 1 0 -22.2 0zM-9.07 715.52 a11.1 11.1 0 1 0 22.2 0 a11.1 11.1 0 1 0 -22.2 0zM279.32 -5.98 a11.1 11.1 0 1 0 22.2 0 a11.1 11.1 0 1 0 -22.2 0zM375.45 49.52 a11.1 11.1 0 1 0 22.2 0 a11.1 11.1 0 1 0 -22.2 0zM375.45 160.52 a11.1 11.1 0 1 0 22.2 0 a11.1 11.1 0 1 0 -22.2 0zM279.32 216.02 a11.1 11.1 0 1 0 22.2 0 a11.1 11.1 0 1 0 -22.2 0zM183.19 160.52 a11.1 11.1 0 1 0 22.2 0 a11.1 11.1 0 1 0 -22.2 0zM183.19 49.52 a11.1 11.1 0 1 0 22.2 0 a11.1 11.1 0 1 0 -22.2 0zM471.59 216.02 a11.1 11.1 0 1 0 22.2 0 a11.1 11.1 0 1 0 -22.2 0zM471.59 327.02 a11.1 11.1 0 1 0 22.2 0 a11.1 11.1 0 1 0 -22.2 0zM375.45 382.52 a11.1 11.1 0 1 0 22.2 0 a11.1 11.1 0 1 0 -22.2 0zM279.32 327.02 a11.1 11.1 0 1 0 22.2 0 a11.1 11.1 0 1 0 -22.2 0zM663.85 -5.98 a11.1 11.1 0 1 0 22.2 0 a11.1 11.1 0 1 0 -22.2 0zM759.98 49.52 a11.1 11.1 0 1 0 22.2 0 a11.1 11.1 0 1 0 -22.2 0zM759.98 160.52 a11.1 11.1 0 1 0 22.2 0 a11.1 11.1 0 1 0 -22.2 0zM663.85 216.02 a11.1 11.1 0 1 0 22.2 0 a11.1 11.1 0 1 0 -22.2 0zM567.72 160.52 a11.1 11.1 0 1 0 22.2 0 a11.1 11.1 0 1 0 -22.2 0zM567.72 49.52 a11.1 11.1 0 1 0 22.2 0 a11.1 11.1 0 1 0 -22.2 0zM759.98 493.52 a11.1 11.1 0 1 0 22.2 0 a11.1 11.1 0 1 0 -22.2 0zM856.11 549.02 a11.1 11.1 0 1 0 22.2 0 a11.1 11.1 0 1 0 -22.2 0zM856.11 660.02 a11.1 11.1 0 1 0 22.2 0 a11.1 11.1 0 1 0 -22.2 0zM759.98 715.52 a11.1 11.1 0 1 0 22.2 0 a11.1 11.1 0 1 0 -22.2 0zM663.85 660.02 a11.1 11.1 0 1 0 22.2 0 a11.1 11.1 0 1 0 -22.2 0zM663.85 549.02 a11.1 11.1 0 1 0 22.2 0 a11.1 11.1 0 1 0 -22.2 0zM856.11 -5.98 a11.1 11.1 0 1 0 22.2 0 a11.1 11.1 0 1 0 -22.2 0zM952.24 49.52 a11.1 11.1 0 1 0 22.2 0 a11.1 11.1 0 1 0 -22.2 0zM952.24 160.52 a11.1 11.1 0 1 0 22.2 0 a11.1 11.1 0 1 0 -22.2 0zM856.11 216.02 a11.1 11.1 0 1 0 22.2 0 a11.1 11.1 0 1 0 -22.2 0zM1048.38 216.02 a11.1 11.1 0 1 0 22.2 0 a11.1 11.1 0 1 0 -22.2 0zM1048.38 327.02 a11.1 11.1 0 1 0 22.2 0 a11.1 11.1 0 1 0 -22.2 0zM952.24 382.52 a11.1 11.1 0 1 0 22.2 0 a11.1 11.1 0 1 0 -22.2 0zM856.11 327.02 a11.1 11.1 0 1 0 22.2 0 a11.1 11.1 0 1 0 -22.2 0zM952.24 493.52 a11.1 11.1 0 1 0 22.2 0 a11.1 11.1 0 1 0 -22.2 0zM1048.38 549.02 a11.1 11.1 0 1 0 22.2 0 a11.1 11.1 0 1 0 -22.2 0zM1048.38 660.02 a11.1 11.1 0 1 0 22.2 0 a11.1 11.1 0 1 0 -22.2 0zM952.24 715.52 a11.1 11.1 0 1 0 22.2 0 a11.1 11.1 0 1 0 -22.2 0zM952.24 826.52 a11.1 11.1 0 1 0 22.2 0 a11.1 11.1 0 1 0 -22.2 0zM856.11 882.02 a11.1 11.1 0 1 0 22.2 0 a11.1 11.1 0 1 0 -22.2 0zM759.98 826.52 a11.1 11.1 0 1 0 22.2 0 a11.1 11.1 0 1 0 -22.2 0zM1144.51 160.52 a11.1 11.1 0 1 0 22.2 0 a11.1 11.1 0 1 0 -22.2 0zM1240.64 216.02 a11.1 11.1 0 1 0 22.2 0 a11.1 11.1 0 1 0 -22.2 0zM1240.64 327.02 a11.1 11.1 0 1 0 22.2 0 a11.1 11.1 0 1 0 -22.2 0zM1144.51 382.52 a11.1 11.1 0 1 0 22.2 0 a11.1 11.1 0 1 0 -22.2 0zM1144.51 493.52 a11.1 11.1 0 1 0 22.2 0 a11.1 11.1 0 1 0 -22.2 0zM1240.64 549.02 a11.1 11.1 0 1 0 22.2 0 a11.1 11.1 0 1 0 -22.2 0zM1240.64 660.02 a11.1 11.1 0 1 0 22.2 0 a11.1 11.1 0 1 0 -22.2 0zM1144.51 715.52 a11.1 11.1 0 1 0 22.2 0 a11.1 11.1 0 1 0 -22.2 0zM1144.51 826.52 a11.1 11.1 0 1 0 22.2 0 a11.1 11.1 0 1 0 -22.2 0zM1048.38 882.02 a11.1 11.1 0 1 0 22.2 0 a11.1 11.1 0 1 0 -22.2 0zM1336.77 493.52 a11.1 11.1 0 1 0 22.2 0 a11.1 11.1 0 1 0 -22.2 0zM1432.9 549.02 a11.1 11.1 0 1 0 22.2 0 a11.1 11.1 0 1 0 -22.2 0zM1432.9 660.02 a11.1 11.1 0 1 0 22.2 0 a11.1 11.1 0 1 0 -22.2 0zM1336.77 715.52 a11.1 11.1 0 1 0 22.2 0 a11.1 11.1 0 1 0 -22.2 0zM1336.77 826.52 a11.1 11.1 0 1 0 22.2 0 a11.1 11.1 0 1 0 -22.2 0zM1240.64 882.02 a11.1 11.1 0 1 0 22.2 0 a11.1 11.1 0 1 0 -22.2 0zM1529.03 493.52 a11.1 11.1 0 1 0 22.2 0 a11.1 11.1 0 1 0 -22.2 0zM1625.16 549.02 a11.1 11.1 0 1 0 22.2 0 a11.1 11.1 0 1 0 -22.2 0zM1625.16 660.02 a11.1 11.1 0 1 0 22.2 0 a11.1 11.1 0 1 0 -22.2 0zM1529.03 715.52 a11.1 11.1 0 1 0 22.2 0 a11.1 11.1 0 1 0 -22.2 0z" fill="rgba(245, 245, 245, 1)"></path><path d="M31.17 -22.38L59.75 -5.88L59.75 27.12L31.17 43.62L2.59 27.12L2.59 -5.88zM59.75 27.12L88.33 43.62L88.33 76.62L59.75 93.12L31.17 76.62L31.17 43.62zM31.17 76.62L59.75 93.12L59.75 126.12L31.17 142.62L2.59 126.12L2.59 93.12zM59.75 324.12L88.33 340.62L88.33 373.62L59.75 390.12L31.17 373.62L31.17 340.62zM59.75 522.12L88.33 538.62L88.33 571.62L59.75 588.12L31.17 571.62L31.17 538.62zM88.33 175.62L116.91 192.12L116.91 225.12L88.33 241.62L59.75 225.12L59.75 192.12zM116.91 225.12L145.49 241.62L145.49 274.62L116.91 291.12L88.33 274.62L88.33 241.62zM88.33 373.62L116.91 390.12L116.91 423.12L88.33 439.62L59.75 423.12L59.75 390.12zM116.91 621.12L145.49 637.62L145.49 670.62L116.91 687.12L88.33 670.62L88.33 637.62zM145.49 76.62L174.07 93.12L174.07 126.12L145.49 142.62L116.91 126.12L116.91 93.12zM174.07 126.12L202.65 142.62L202.65 175.62L174.07 192.12L145.49 175.62L145.49 142.62zM174.07 324.12L202.65 340.62L202.65 373.62L174.07 390.12L145.49 373.62L145.49 340.62zM174.07 423.12L202.65 439.62L202.65 472.62L174.07 489.12L145.49 472.62L145.49 439.62zM174.07 522.12L202.65 538.62L202.65 571.62L174.07 588.12L145.49 571.62L145.49 538.62zM202.65 76.62L231.23 93.12L231.23 126.12L202.65 142.62L174.07 126.12L174.07 93.12zM202.65 175.62L231.23 192.12L231.23 225.12L202.65 241.62L174.07 225.12L174.07 192.12zM202.65 274.62L231.23 291.12L231.23 324.12L202.65 340.62L174.07 324.12L174.07 291.12zM259.81 -22.38L288.39 -5.88L288.39 27.12L259.81 43.62L231.23 27.12L231.23 -5.88zM288.39 126.12L316.97 142.62L316.97 175.62L288.39 192.12L259.81 175.62L259.81 142.62zM259.81 472.62L288.39 489.12L288.39 522.12L259.81 538.62L231.23 522.12L231.23 489.12zM259.81 571.62L288.39 588.12L288.39 621.12L259.81 637.62L231.23 621.12L231.23 588.12zM316.97 -22.38L345.55 -5.88L345.55 27.12L316.97 43.62L288.39 27.12L288.39 -5.88zM345.55 225.12L374.13 241.62L374.13 274.62L345.55 291.12L316.97 274.62L316.97 241.62zM316.97 373.62L345.55 390.12L345.55 423.12L316.97 439.62L288.39 423.12L288.39 390.12zM345.55 423.12L374.13 439.62L374.13 472.62L345.55 489.12L316.97 472.62L316.97 439.62zM345.55 522.12L374.13 538.62L374.13 571.62L345.55 588.12L316.97 571.62L316.97 538.62zM374.13 -22.38L402.71 -5.88L402.71 27.12L374.13 43.62L345.55 27.12L345.55 -5.88zM402.71 324.12L431.29 340.62L431.29 373.62L402.71 390.12L374.13 373.62L374.13 340.62zM459.86 27.12L488.44 43.62L488.44 76.62L459.86 93.12L431.29 76.62L431.29 43.62zM431.29 76.62L459.86 93.12L459.86 126.12L431.29 142.62L402.71 126.12L402.71 93.12zM431.29 373.62L459.86 390.12L459.86 423.12L431.29 439.62L402.71 423.12L402.71 390.12zM459.86 522.12L488.44 538.62L488.44 571.62L459.86 588.12L431.29 571.62L431.29 538.62zM488.44 175.62L517.02 192.12L517.02 225.12L488.44 241.62L459.86 225.12L459.86 192.12zM488.44 274.62L517.02 291.12L517.02 324.12L488.44 340.62L459.86 324.12L459.86 291.12zM488.44 373.62L517.02 390.12L517.02 423.12L488.44 439.62L459.86 423.12L459.86 390.12zM517.02 423.12L545.6 439.62L545.6 472.62L517.02 489.12L488.44 472.62L488.44 439.62zM488.44 472.62L517.02 489.12L517.02 522.12L488.44 538.62L459.86 522.12L459.86 489.12zM517.02 621.12L545.6 637.62L545.6 670.62L517.02 687.12L488.44 670.62L488.44 637.62zM545.6 76.62L574.18 93.12L574.18 126.12L545.6 142.62L517.02 126.12L517.02 93.12zM545.6 175.62L574.18 192.12L574.18 225.12L545.6 241.62L517.02 225.12L517.02 192.12zM545.6 373.62L574.18 390.12L574.18 423.12L545.6 439.62L517.02 423.12L517.02 390.12zM545.6 571.62L574.18 588.12L574.18 621.12L545.6 637.62L517.02 621.12L517.02 588.12zM574.18 621.12L602.76 637.62L602.76 670.62L574.18 687.12L545.6 670.62L545.6 637.62zM602.76 76.62L631.34 93.12L631.34 126.12L602.76 142.62L574.18 126.12L574.18 93.12zM631.34 225.12L659.92 241.62L659.92 274.62L631.34 291.12L602.76 274.62L602.76 241.62zM631.34 324.12L659.92 340.62L659.92 373.62L631.34 390.12L602.76 373.62L602.76 340.62zM602.76 373.62L631.34 390.12L631.34 423.12L602.76 439.62L574.18 423.12L574.18 390.12zM631.34 522.12L659.92 538.62L659.92 571.62L631.34 588.12L602.76 571.62L602.76 538.62zM631.34 621.12L659.92 637.62L659.92 670.62L631.34 687.12L602.76 670.62L602.76 637.62zM688.5 27.12L717.08 43.62L717.08 76.62L688.5 93.12L659.92 76.62L659.92 43.62zM659.92 571.62L688.5 588.12L688.5 621.12L659.92 637.62L631.34 621.12L631.34 588.12zM745.66 27.12L774.24 43.62L774.24 76.62L745.66 93.12L717.08 76.62L717.08 43.62zM717.08 76.62L745.66 93.12L745.66 126.12L717.08 142.62L688.5 126.12L688.5 93.12zM745.66 225.12L774.24 241.62L774.24 274.62L745.66 291.12L717.08 274.62L717.08 241.62zM717.08 274.62L745.66 291.12L745.66 324.12L717.08 340.62L688.5 324.12L688.5 291.12zM745.66 423.12L774.24 439.62L774.24 472.62L745.66 489.12L717.08 472.62L717.08 439.62zM717.08 472.62L745.66 489.12L745.66 522.12L717.08 538.62L688.5 522.12L688.5 489.12zM717.08 571.62L745.66 588.12L745.66 621.12L717.08 637.62L688.5 621.12L688.5 588.12zM774.24 175.62L802.82 192.12L802.82 225.12L774.24 241.62L745.66 225.12L745.66 192.12zM774.24 274.62L802.82 291.12L802.82 324.12L774.24 340.62L745.66 324.12L745.66 291.12zM802.82 324.12L831.4 340.62L831.4 373.62L802.82 390.12L774.24 373.62L774.24 340.62zM774.24 373.62L802.82 390.12L802.82 423.12L774.24 439.62L745.66 423.12L745.66 390.12zM802.82 423.12L831.4 439.62L831.4 472.62L802.82 489.12L774.24 472.62L774.24 439.62zM774.24 472.62L802.82 489.12L802.82 522.12L774.24 538.62L745.66 522.12L745.66 489.12zM802.82 522.12L831.4 538.62L831.4 571.62L802.82 588.12L774.24 571.62L774.24 538.62zM859.98 126.12L888.56 142.62L888.56 175.62L859.98 192.12L831.4 175.62L831.4 142.62zM859.98 225.12L888.56 241.62L888.56 274.62L859.98 291.12L831.4 274.62L831.4 241.62zM831.4 274.62L859.98 291.12L859.98 324.12L831.4 340.62L802.82 324.12L802.82 291.12zM831.4 472.62L859.98 489.12L859.98 522.12L831.4 538.62L802.82 522.12L802.82 489.12zM888.56 -22.38L917.14 -5.88L917.14 27.12L888.56 43.62L859.98 27.12L859.98 -5.88zM917.14 27.12L945.72 43.62L945.72 76.62L917.14 93.12L888.56 76.62L888.56 43.62zM888.56 175.62L917.14 192.12L917.14 225.12L888.56 241.62L859.98 225.12L859.98 192.12zM888.56 274.62L917.14 291.12L917.14 324.12L888.56 340.62L859.98 324.12L859.98 291.12zM888.56 373.62L917.14 390.12L917.14 423.12L888.56 439.62L859.98 423.12L859.98 390.12zM888.56 571.62L917.14 588.12L917.14 621.12L888.56 637.62L859.98 621.12L859.98 588.12zM945.72 -22.38L974.3 -5.88L974.3 27.12L945.72 43.62L917.14 27.12L917.14 -5.88zM974.3 27.12L1002.88 43.62L1002.88 76.62L974.3 93.12L945.72 76.62L945.72 43.62zM974.3 324.12L1002.88 340.62L1002.88 373.62L974.3 390.12L945.72 373.62L945.72 340.62zM974.3 423.12L1002.88 439.62L1002.88 472.62L974.3 489.12L945.72 472.62L945.72 439.62zM974.3 522.12L1002.88 538.62L1002.88 571.62L974.3 588.12L945.72 571.62L945.72 538.62zM974.3 621.12L1002.88 637.62L1002.88 670.62L974.3 687.12L945.72 670.62L945.72 637.62zM1031.46 126.12L1060.04 142.62L1060.04 175.62L1031.46 192.12L1002.88 175.62L1002.88 142.62zM1031.46 225.12L1060.04 241.62L1060.04 274.62L1031.46 291.12L1002.88 274.62L1002.88 241.62zM1031.46 522.12L1060.04 538.62L1060.04 571.62L1031.46 588.12L1002.88 571.62L1002.88 538.62zM1002.88 571.62L1031.46 588.12L1031.46 621.12L1002.88 637.62L974.3 621.12L974.3 588.12zM1031.46 621.12L1060.04 637.62L1060.04 670.62L1031.46 687.12L1002.88 670.62L1002.88 637.62zM1088.62 27.12L1117.2 43.62L1117.2 76.62L1088.62 93.12L1060.04 76.62L1060.04 43.62zM1060.04 175.62L1088.62 192.12L1088.62 225.12L1060.04 241.62L1031.46 225.12L1031.46 192.12zM1060.04 274.62L1088.62 291.12L1088.62 324.12L1060.04 340.62L1031.46 324.12L1031.46 291.12zM1088.62 324.12L1117.2 340.62L1117.2 373.62L1088.62 390.12L1060.04 373.62L1060.04 340.62zM1088.62 621.12L1117.2 637.62L1117.2 670.62L1088.62 687.12L1060.04 670.62L1060.04 637.62zM1117.2 -22.38L1145.78 -5.88L1145.78 27.12L1117.2 43.62L1088.62 27.12L1088.62 -5.88zM1117.2 76.62L1145.78 93.12L1145.78 126.12L1117.2 142.62L1088.62 126.12L1088.62 93.12zM1117.2 274.62L1145.78 291.12L1145.78 324.12L1117.2 340.62L1088.62 324.12L1088.62 291.12zM1145.78 621.12L1174.36 637.62L1174.36 670.62L1145.78 687.12L1117.2 670.62L1117.2 637.62zM1202.94 126.12L1231.52 142.62L1231.52 175.62L1202.94 192.12L1174.36 175.62L1174.36 142.62zM1174.36 175.62L1202.94 192.12L1202.94 225.12L1174.36 241.62L1145.78 225.12L1145.78 192.12zM1174.36 274.62L1202.94 291.12L1202.94 324.12L1174.36 340.62L1145.78 324.12L1145.78 291.12zM1202.94 324.12L1231.52 340.62L1231.52 373.62L1202.94 390.12L1174.36 373.62L1174.36 340.62zM1174.36 373.62L1202.94 390.12L1202.94 423.12L1174.36 439.62L1145.78 423.12L1145.78 390.12zM1202.94 522.12L1231.52 538.62L1231.52 571.62L1202.94 588.12L1174.36 571.62L1174.36 538.62zM1260.09 27.12L1288.67 43.62L1288.67 76.62L1260.09 93.12L1231.52 76.62L1231.52 43.62zM1231.52 175.62L1260.09 192.12L1260.09 225.12L1231.52 241.62L1202.94 225.12L1202.94 192.12zM1260.09 225.12L1288.67 241.62L1288.67 274.62L1260.09 291.12L1231.52 274.62L1231.52 241.62zM1231.52 274.62L1260.09 291.12L1260.09 324.12L1231.52 340.62L1202.94 324.12L1202.94 291.12zM1231.52 472.62L1260.09 489.12L1260.09 522.12L1231.52 538.62L1202.94 522.12L1202.94 489.12zM1260.09 522.12L1288.67 538.62L1288.67 571.62L1260.09 588.12L1231.52 571.62L1231.52 538.62zM1231.52 571.62L1260.09 588.12L1260.09 621.12L1231.52 637.62L1202.94 621.12L1202.94 588.12zM1288.67 76.62L1317.25 93.12L1317.25 126.12L1288.67 142.62L1260.09 126.12L1260.09 93.12zM1317.25 225.12L1345.83 241.62L1345.83 274.62L1317.25 291.12L1288.67 274.62L1288.67 241.62zM1288.67 274.62L1317.25 291.12L1317.25 324.12L1288.67 340.62L1260.09 324.12L1260.09 291.12zM1288.67 571.62L1317.25 588.12L1317.25 621.12L1288.67 637.62L1260.09 621.12L1260.09 588.12zM1345.83 -22.38L1374.41 -5.88L1374.41 27.12L1345.83 43.62L1317.25 27.12L1317.25 -5.88zM1374.41 27.12L1402.99 43.62L1402.99 76.62L1374.41 93.12L1345.83 76.62L1345.83 43.62zM1345.83 274.62L1374.41 291.12L1374.41 324.12L1345.83 340.62L1317.25 324.12L1317.25 291.12zM1374.41 522.12L1402.99 538.62L1402.99 571.62L1374.41 588.12L1345.83 571.62L1345.83 538.62zM1374.41 621.12L1402.99 637.62L1402.99 670.62L1374.41 687.12L1345.83 670.62L1345.83 637.62zM1431.57 225.12L1460.15 241.62L1460.15 274.62L1431.57 291.12L1402.99 274.62L1402.99 241.62zM1402.99 274.62L1431.57 291.12L1431.57 324.12L1402.99 340.62L1374.41 324.12L1374.41 291.12zM1402.99 472.62L1431.57 489.12L1431.57 522.12L1402.99 538.62L1374.41 522.12L1374.41 489.12zM1460.15 76.62L1488.73 93.12L1488.73 126.12L1460.15 142.62L1431.57 126.12L1431.57 93.12zM1488.73 126.12L1517.31 142.62L1517.31 175.62L1488.73 192.12L1460.15 175.62L1460.15 142.62zM1460.15 274.62L1488.73 291.12L1488.73 324.12L1460.15 340.62L1431.57 324.12L1431.57 291.12zM1460.15 373.62L1488.73 390.12L1488.73 423.12L1460.15 439.62L1431.57 423.12L1431.57 390.12zM1488.73 522.12L1517.31 538.62L1517.31 571.62L1488.73 588.12L1460.15 571.62L1460.15 538.62zM1460.15 571.62L1488.73 588.12L1488.73 621.12L1460.15 637.62L1431.57 621.12L1431.57 588.12zM1488.73 621.12L1517.31 637.62L1517.31 670.62L1488.73 687.12L1460.15 670.62L1460.15 637.62z" stroke="rgba(213, 216, 219, 0.93)" stroke-width="2"></path></g><defs><mask id="SvgjsMask1221"><rect width="1440" height="628" fill="#ffffff"></rect></mask></defs></svg>